<svg xmlns="http://www.w3.org/2000/svg" fill="none" viewBox="0 0 186 184"><ellipse cx="93.43" cy="92" fill="#fff" rx="92.5" ry="92"/><mask id="a" width="185" height="184" x="1" y="0" maskUnits="userSpaceOnUse" style="mask-type:alpha"><path fill="#fff" stroke="#000" d="M185.5 92c0 50.53-41.19 91.5-92 91.5s-92-40.97-92-91.5S42.69.5 93.5.5s92 40.97 92 91.5z"/></mask><g mask="url(#a)"><path fill="#6FC1FD" stroke="#000" d="M-44.38 146.08h179.42v48.5H-44.38z"/><path fill="#6FC1FD" stroke="#000" d="M-45.07 86.91l179.41-1.1.38 60.66-179.42 1.1z"/><path fill="#fff" stroke="#000" d="M132.39 66.33c2.15 16.47-8.76 31.43-24.3 33.45-15.55 2.03-29.93-9.63-32.08-26.1-2.15-16.48 8.76-31.44 24.3-33.46 15.55-2.03 29.93 9.63 32.08 26.1z"/><path fill="#fff" stroke="#000" d="M83.75 65.34c2.14 16.48-8.77 31.44-24.31 33.46-15.54 2.03-29.93-9.63-32.07-26.1-2.15-16.48 8.76-31.44 24.3-33.47 15.55-2.02 29.93 9.64 32.08 26.11z"/><path fill="#000" stroke="#000" d="M113.77 69.5l-.96.33.83.57 7.13 4.84a12.2 12.2 0 01-9.7 7.74c-6.72.87-12.97-4.17-13.9-11.33-.93-7.16 3.81-13.64 10.53-14.52 6.25-.81 12.09 3.5 13.63 9.86l-7.56 2.52z"/><path fill="#000" d="M72.73 74.07a12.73 12.73 0 01-10.24 8.42c-7.02.92-13.5-4.35-14.46-11.76-.96-7.41 3.94-14.16 10.96-15.07 6.68-.87 12.86 3.84 14.28 10.68L65.28 69l7.45 5.07z"/><path fill="#fff" d="M79.57 130.74c-15.17.6-24.04-8.68-28.28-16.7-1.63-3.09 1.05-6.28 4.5-5.9l7.6.8c12.1 1.62 26.45 1.1 29.05 1 1.3-.05 4.9-.35 8.16-.63 3.17-.27 5.74 2.44 4.5 5.36-3.02 7.07-10.43 15.47-25.53 16.07z"/><path stroke="#000" d="M54.63 118.64c8.79 3.5 30.83 8.22 48.72-.85m-52.06-3.76c4.24 8.03 13.11 17.31 28.28 16.71 15.1-.6 22.5-9 25.52-16.06 1.25-2.92-1.32-5.64-4.49-5.37-3.26.29-6.85.58-8.16.63-2.6.1-16.96.62-29.05-1l-7.6-.8c-3.45-.38-6.13 2.81-4.5 5.9z"/><path fill="#D9D9D9" d="M167.43 128.09v3.07a28.5 28.5 0 01-28.5 28.5 12 12 0 01-12-12v-36.93c0-6.4 5.18-11.57 11.57-11.57 3.47 0 6.8.61 9.9 1.73a51.93 51.93 0 00-5.47-1.73c-1.34-6.67-.8-17.6 12-16 15.76 1.97 8.04 27.25 4.64 25.11a28.83 28.83 0 017.86 19.82z"/><path stroke="#000" d="M126.93 119.66v-8.93c0-6.4 5.18-11.57 11.57-11.57a28.93 28.93 0 0128.93 28.93v3.07a28.5 28.5 0 01-28.5 28.5 12 12 0 01-12-12v-6m0-22h14m-14 0v22m0 0h14m2-42.5c-1.34-6.67-.8-17.6 12-16 16 2 7.8 28 4.5 25-5.5-5-9-7-16.5-9z"/><path stroke="#000" d="M185.43 92c0 50.53-41.2 91.5-92 91.5-50.82 0-92-40.97-92-91.5S42.6.5 93.43.5c50.8 0 92 40.97 92 91.5z"/></g></svg>