<svg xmlns="http://www.w3.org/2000/svg" fill="none" viewBox="0 0 186 184">
  <ellipse cx="93.4258" cy="92" fill="#fff" rx="92.5" ry="92"/>
  <mask id="a" width="185" height="184" x="1" y="0" maskUnits="userSpaceOnUse" style="mask-type:alpha">
    <path fill="#fff" stroke="#000" d="M185.5 92c0 50.532-41.187 91.5-92 91.5-50.8128 0-92-40.968-92-91.5C1.5 41.4685 42.6872.5 93.5.5c50.813 0 92 40.9685 92 91.5Z"/>
  </mask>
  <g mask="url(#a)">
    <path fill="#6FC1FD" stroke="#000" d="M-44.3755 146.079h179.42v48.4919h-179.42z"/>
    <path fill="#6FC1FD" stroke="#000" d="m-45.0742 86.9148 179.41661383-1.102308.37266574 60.65675522-179.41661382 1.10230799z"/>
    <path fill="#fff" stroke="#000" d="M132.389 66.3262c2.147 16.4745-8.764 31.4315-24.308 33.4574-15.5439 2.0254-29.9243-9.6349-32.0714-26.1094-2.1472-16.4745 8.7642-31.4315 24.3084-33.4573 15.543-2.0259 29.924 9.6348 32.071 26.1093Z"/>
    <path fill="#fff" stroke="#000" d="M83.7473 65.3438c2.1472 16.4745-8.7642 31.4315-24.308 33.4573-15.5438 2.0259-29.9243-9.6348-32.0714-26.1093-2.1471-16.4745 8.7642-31.4315 24.308-33.4574 15.5439-2.0258 29.9243 9.6349 32.0714 26.1094Z"/>
    <path fill="#000" stroke="#000" d="m113.768 69.5078-.959.3195.836.5683 7.123 4.8436c-1.632 4.0965-5.225 7.1545-9.699 7.7375-6.721.876-12.9654-4.1673-13.8987-11.329-.9334-7.1616 3.8097-13.6369 10.5307-14.5129 6.25-.8145 12.085 3.4874 13.625 9.8534l-7.558 2.5196Z"/>
    <path fill="#000" d="M72.734 74.0656c-1.6186 4.4363-5.4351 7.798-10.242 8.4245-7.0198.9149-13.4935-4.3503-14.4592-11.7602-.9657-7.4099 3.9421-14.1584 10.962-15.0733 6.6739-.8698 12.854 3.8462 14.2769 10.6806l-7.9875 2.6625 7.4498 5.0659Z"/>
    <path fill="#fff" d="M79.5711 130.742c-15.1716.6-24.0408-8.685-28.2821-16.709-1.6274-3.079 1.0464-6.269 4.5091-5.901l7.5889.809c12.0969 1.616 26.4493 1.106 29.0532 1.003 1.307-.052 4.9037-.349 8.1628-.632 3.163-.275 5.739 2.443 4.491 5.363-3.019 7.061-10.4206 15.47-25.5229 16.067Z"/>
    <path stroke="#000" d="M54.6302 118.638c8.7851 3.498 30.8277 8.224 48.7178-.853m-52.059-3.752c4.2413 8.024 13.1105 17.309 28.2821 16.709 15.1023-.597 22.5039-9.006 25.5229-16.067 1.248-2.92-1.328-5.638-4.491-5.363-3.2591.283-6.8558.58-8.1628.632-2.6039.103-16.9563.613-29.0532-1.003l-7.5889-.809c-3.4627-.368-6.1365 2.822-4.5091 5.901Z"/>
    <path fill="#D9D9D9" d="M167.426 128.087v3.071c0 15.74-12.76 28.5-28.5 28.5-6.628 0-12-5.373-12-12v-36.929c0-6.39 5.18-11.571 11.571-11.571 3.476 0 6.808.6129 9.895 1.736-1.598-.622-3.377-1.1786-5.466-1.7356-1.334-6.6667-.8-17.6005 12-16.0005 15.766 1.9707 8.043 27.2531 4.648 25.1131 4.869 5.177 7.852 12.148 7.852 19.816Z"/>
    <path stroke="#000" d="M126.926 119.658v-8.929c0-6.39 5.18-11.571 11.571-11.571 15.977 0 28.929 12.952 28.929 28.929v3.071c0 15.74-12.76 28.5-28.5 28.5-6.628 0-12-5.373-12-12v-6m0-22h14m-14 0v22m0 0h14m2-42.4996c-1.334-6.6667-.8-17.6005 12-16.0005 16 2 7.809 28.0081 4.5 25.0001-5.5-5-9-7-16.5-8.9996Z"/>
    <path stroke="#000" d="M185.426 92c0 50.532-41.187 91.5-92.0002 91.5-50.8128 0-92.00002-40.968-92.00002-91.5C1.42578 41.4685 42.613.5 93.4258.5 144.239.5 185.426 41.4685 185.426 92Z"/>
  </g>
</svg>
